PathFileType	4	(X/Y/Z)	C:/Users/opensim2020/Desktop/walking_exp_matlab/subject02_walking08_straight_03.trc	
DataRate	CameraRate	NumFrames	NumMarkers	Units	OrigDataRate	OrigDataStartFrame	OrigNumFrames	
100.00	100.00	4	41	mm	100.00	2341	252	
Frame#	Time	LFHD			RFHD			LBHD			RBHD			C7			T10			CLAV			STRN			RBAK			LSHO			LUPA			LELB			LFRM			LWRA			LWRB			LFIN			RSHO			RUPA			RELB			RFRM			RWRA			RWRB			RFIN			LASI			RASI			LPSI			RPSI			LTHI			LKNE			LTIB			LANK			LHEE			LTOE			RTHI			RKNE			RTIB			RANK			RHEE			RTOE			*39			*40			
		X1	Y1	Z1	X2	Y2	Z2	X3	Y3	Z3	X4	Y4	Z4	X5	Y5	Z5	X6	Y6	Z6	X7	Y7	Z7	X8	Y8	Z8	X9	Y9	Z9	X10	Y10	Z10	X11	Y11	Z11	X12	Y12	Z12	X13	Y13	Z13	X14	Y14	Z14	X15	Y15	Z15	X16	Y16	Z16	X17	Y17	Z17	X18	Y18	Z18	X19	Y19	Z19	X20	Y20	Z20	X21	Y21	Z21	X22	Y22	Z22	X23	Y23	Z23	X24	Y24	Z24	X25	Y25	Z25	X26	Y26	Z26	X27	Y27	Z27	X28	Y28	Z28	X29	Y29	Z29	X30	Y30	Z30	X31	Y31	Z31	X32	Y32	Z32	X33	Y33	Z33	X34	Y34	Z34	X35	Y35	Z35	X36	Y36	Z36	X37	Y37	Z37	X38	Y38	Z38	X39	Y39	Z39	X40	Y40	Z40	X41	Y41	Z41	

127	1.260	-1096.36609	-153.48370	1722.21387	-958.77747	-195.96706	1706.41248	-1142.18860	-285.83524	1665.75195	-1010.14862	-340.50424	1649.94238	-1065.65820	-381.17181	1530.70422	-1052.32727	-445.80844	1252.43237	-1076.00647	-247.68233	1452.61377	-1067.21838	-201.46593	1280.74414	-997.85815	-448.43604	1355.68054	-1243.85632	-317.28592	1498.81909	-1336.37549	-312.22269	1302.58716	-1357.53064	-287.99396	1163.46106	-1370.11194	-239.42380	1039.82605	-1334.30505	-151.09143	937.78333	-1370.77319	-193.19688	925.78656	-1373.29236	-153.65628	872.35858	-879.15137	-306.38651	1492.88196	-793.74628	-347.97043	1305.76611	-772.51318	-342.04190	1159.30981	-749.77332	-309.49432	1043.65125	-763.57245	-251.49982	920.40869	-735.34821	-301.25064	913.88611	-729.37256	-260.29910	854.05621	-1194.99988	-220.39955	984.99182	-936.96051	-207.07150	981.69745	-1101.71887	-426.74054	1029.79175	-987.42035	-426.96835	1030.55603	-1221.03235	-301.52200	671.82404	-1181.94934	-348.70462	473.51566	-1175.57202	-421.43573	291.94479	-1127.89502	-438.02112	71.58775	-1077.08643	-477.33017	46.02733	-1135.87463	-282.37610	32.18868	-844.19824	-213.37723	688.53711	-867.98621	-150.25899	489.87976	-859.77209	-181.23639	305.07959	-886.34894	-181.79997	111.02086	-946.77802	-199.70102	50.82866	-849.43457	-32.86330	65.66720	-1036.18591	-266.03210	1802.22607			 
128	1.270	-1095.19836	-144.63603	1721.16980	-957.80115	-187.41933	1705.00366	-1141.69666	-276.91013	1665.03455	-1009.60571	-331.44974	1648.78088	-1065.45886	-372.64206	1529.85376	-1052.02307	-437.64822	1251.70923	-1075.88464	-239.29535	1451.60034	-1067.25842	-193.30862	1279.63000	-997.73224	-440.10971	1354.75854	-1243.66223	-308.69904	1498.21399	-1336.16064	-302.68307	1302.03723	-1357.87024	-276.91971	1163.28137	-1369.58252	-226.30582	1040.46533	-1333.40930	-136.12401	940.14966	-1369.93347	-177.84309	927.24219	-1372.24170	-137.18015	874.65570	-878.98218	-298.03882	1491.70288	-793.72638	-340.96643	1304.84937	-772.42712	-334.79236	1158.54321	-749.47406	-303.11136	1042.52148	-762.98761	-245.83620	919.02307	-734.91888	-295.46802	912.84467	-728.64624	-254.99976	852.64532	-1195.07813	-212.95961	984.30914	-937.18988	-198.38080	981.29346	-1101.01147	-418.83044	1028.82617	-986.87500	-418.53491	1029.47327	-1220.95496	-296.50052	671.22687	-1181.75647	-345.23318	473.28262	-1175.09412	-419.69153	292.43082	-1127.63562	-437.80762	72.03930	-1076.66687	-477.09476	46.65527	-1135.91565	-282.32761	32.11765	-844.54712	-204.22942	687.58936	-869.36707	-140.23158	489.08691	-859.29803	-162.87032	303.07175	-884.45544	-155.14687	109.10051	-944.59821	-170.85291	47.92950	-849.45972	-3.49107	70.05785	-1035.01038	-257.11090	1801.26221			 
129	1.280	-1094.19116	-135.76541	1719.99536	-956.73932	-179.02652	1703.61694	-1140.90320	-268.00214	1664.20435	-1009.27820	-323.44260	1647.86328	-1065.18555	-364.03232	1528.94910	-1051.62415	-429.28125	1250.89502	-1075.58423	-230.83690	1450.51672	-1067.21143	-185.10027	1278.50537	-997.57642	-432.07376	1354.10498	-1243.23511	-300.14236	1497.34900	-1336.28821	-292.97675	1301.75293	-1357.97693	-266.03531	1162.96558	-1369.84045	-213.15076	1041.05750	-1332.42981	-121.43855	942.41504	-1368.92065	-162.88321	928.60144	-1371.14050	-121.09736	876.91260	-878.66772	-289.38498	1490.50012	-793.22882	-332.50180	1303.77197	-772.31860	-327.75461	1157.53955	-749.25751	-297.00760	1041.40601	-762.32849	-240.16104	917.28204	-734.50110	-289.88913	911.54535	-728.04639	-249.54610	851.23425	-1195.08630	-205.40001	983.52332	-937.31000	-189.63680	980.53003	-1100.15906	-410.87848	1027.85840	-985.97821	-410.38483	1028.56982	-1221.03589	-291.54819	670.67627	-1181.46094	-341.65759	473.07858	-1174.68884	-417.78625	292.95187	-1127.41687	-437.55951	72.47648	-1076.27197	-476.82263	47.29398	-1135.99316	-282.25037	32.07133	-844.79199	-195.44112	686.41156	-870.82806	-130.39114	488.17007	-858.96057	-144.23779	301.42145	-882.95691	-128.20532	107.64352	-942.39001	-142.64664	45.75214	-849.87781	25.27230	75.08430	-1034.17419	-248.56186	1800.11755			 
130	1.290	-1092.92786	-126.90437	1718.82336	-955.94946	-170.65753	1701.90686	-1140.10510	-259.13470	1663.32556	-1008.42407	-314.26062	1646.57874	-1064.63611	-355.43863	1527.94946	-1051.17163	-420.97198	1250.01953	-1075.27173	-222.32693	1449.44910	-1067.03735	-176.80736	1277.34985	-997.29596	-423.06461	1352.96021	-1242.85461	-291.52878	1496.57446	-1336.07080	-283.34686	1301.16687	-1357.94043	-255.28111	1162.57361	-1369.06421	-200.39148	1041.29919	-1331.94958	-106.71088	944.94263	-1367.74878	-148.21210	929.70648	-1369.92896	-105.39336	879.01331	-878.27765	-280.46460	1489.08484	-792.94110	-324.80533	1302.81323	-771.96228	-320.35822	1156.39099	-748.70465	-290.26596	1039.79907	-761.69104	-234.02202	915.91510	-734.01111	-283.90527	910.33765	-727.52014	-244.31223	849.48260	-1195.08740	-197.63928	982.72076	-937.42993	-180.59032	979.63733	-1099.12988	-402.85156	1026.90283	-985.16602	-401.18942	1027.26965	-1220.92578	-286.56299	670.11053	-1181.34985	-338.10202	472.91849	-1174.22913	-415.77618	293.43314	-1127.07861	-437.31113	72.85033	-1076.21729	-476.59909	47.90063	-1136.21826	-282.03525	32.14536	-844.96509	-186.88255	685.02850	-872.20258	-120.47208	487.21069	-858.47375	-126.24899	300.22620	-881.31641	-102.26019	107.00696	-939.96167	-115.09748	44.26097	-850.71405	53.04528	80.59615	-1032.95837	-239.59956	1798.93481			 
